# xmcd CD database file
#
# Track frame offsets:
#	150
#	13418
#	30031
#	49349
#	66850
#	81381
#	99388
#	109826
#	124009
#	141634
#	159307
#	175717
#	193555
#	214155
#	230999
#	251458
#	280303
#
# Disc length: 3940 seconds
#
# Revision: 2
# Processed by: cddbd v1.5.1PL2 Copyright (c) Steve Scherf et al.
# Submitted via: CDex 1.51
#
DISCID=f50f6211
DTITLE=Garou - Reviens
DYEAR=2004
DGENRE=Blues
TTITLE0=Passe ta route
TTITLE1=Et si on dormait
TTITLE2=Hemingway
TTITLE3=L'aveu
TTITLE4=Reviens
TTITLE5=Pour l'amour d'une femme
TTITLE6=Pendant que mes cheveux poussent
TTITLE7=Les filles
TTITLE8=Le sucre et le sel
TTITLE9=Quand passe la passion
TTITLE10=Au coeur de la terre
TTITLE11=Prière indienne
TTITLE12=Tout cet amour là
TTITLE13=Ne me parlez plus d'elle
TTITLE14=Ton premier regard
TTITLE15=Une dernière fois encore
TTITLE16=La rivière de notre enfance
EXTD=YEAR: 2004
EXTT0=
EXTT1=
EXTT2=
EXTT3=
EXTT4=
EXTT5=
EXTT6=
EXTT7=
EXTT8=
EXTT9=
EXTT10=
EXTT11=
EXTT12=
EXTT13=
EXTT14=
EXTT15=
EXTT16=
PLAYORDER=
